<?xml version="1.0" encoding="iso-8859-1"?>
<!-- Generator: Adobe Illustrator 16.0.0, SVG Export Plug-In . SVG Version: 6.00 Build 0)  -->
<!DOCTYPE svg PUBLIC "-//W3C//DTD SVG 1.1//EN" "http://www.w3.org/Graphics/SVG/1.1/DTD/svg11.dtd">
<svg version="1.1" id="Capa_1" xmlns="http://www.w3.org/2000/svg" xmlns:xlink="http://www.w3.org/1999/xlink" x="0px" y="0px"
	 width="59px" height="52px" viewBox="0 0 50 50" style="enable-background:new 0 0 50 50;" xml:space="preserve">
<g>
	<g>
		<polygon points="44.443,15.514 5.556,15.514 5.556,40.514 14.406,40.514 15.474,38.662 7.408,38.662 7.408,17.365 42.592,17.365
			42.592,38.662 34.525,38.662 35.594,40.514 44.443,40.514 		"/>
		<path d="M40.85,9.96L25.206,2.137c-0.129-0.064-0.283-0.064-0.412,0L9.15,9.96H0v36.108h11.199l2.138-3.703H3.704V13.662h42.592
			v28.703h-9.633l2.138,3.703H50V9.96H40.85z M11.22,9.96l12.533-6.268c-0.005,0.045-0.026,0.085-0.026,0.132
			c0,0.703,0.57,1.273,1.273,1.273s1.273-0.57,1.273-1.273c0-0.047-0.021-0.087-0.026-0.132L38.779,9.96H11.22z"/>
		<path d="M34.373,30.637c0-5.169-4.202-9.373-9.373-9.373s-9.373,4.204-9.373,9.373c0,2.826,1.292,5.454,3.409,7.212l-4.419,7.658
			l3.4-1.089l0.761,3.493l5.168-8.956c0.348,0.041,0.698,0.072,1.054,0.072c0.357,0,0.706-0.031,1.055-0.072l5.168,8.956l0.76-3.493
			l3.4,1.089l-4.419-7.658C33.081,36.091,34.373,33.463,34.373,30.637z M25,36.407c-3.188,0-5.769-2.583-5.769-5.771
			c0-3.185,2.581-5.768,5.769-5.768c3.188,0,5.77,2.583,5.77,5.768C30.77,33.824,28.188,36.407,25,36.407z"/>
	</g>
</g>
<g>
</g>
<g>
</g>
<g>
</g>
<g>
</g>
<g>
</g>
<g>
</g>
<g>
</g>
<g>
</g>
<g>
</g>
<g>
</g>
<g>
</g>
<g>
</g>
<g>
</g>
<g>
</g>
<g>
</g>
</svg>
